<?xml version="1.0" standalone="no"?>
<!DOCTYPE svg PUBLIC "-//W3C//DTD SVG 20010904//EN"
 "http://www.w3.org/TR/2001/REC-SVG-20010904/DTD/svg10.dtd">
<svg version="1.0" xmlns="http://www.w3.org/2000/svg"
 width="40px" height="40px" viewBox="0 0 50 50"
 preserveAspectRatio="xMidYMid meet">

<g transform="translate(0.000000,50.000000)"
fill="#000000" stroke="none">
<path d="M780 4584 c-90 -24 -161 -65 -230 -134 -36 -36 -77 -90 -92 -120 -61
-124 -58 -19 -58 -1830 0 -1811 -3 -1706 58 -1830 35 -71 141 -177 212 -212
124 -61 19 -58 1830 -58 1811 0 1706 -3 1830 58 70 34 177 141 212 212 61 123
58 19 58 1830 0 1811 3 1707 -58 1830 -35 71 -142 178 -212 212 -124 61 -18
58 -1835 57 -1423 0 -1668 -2 -1715 -15z m3452 -217 c64 -32 111 -80 142 -146
l21 -46 3 -1645 c2 -1175 0 -1660 -8 -1697 -15 -69 -62 -137 -124 -179 -71
-47 -80 -45 -95 22 -7 30 -33 97 -58 147 -36 72 -63 109 -127 173 -128 129
-232 189 -551 319 -273 110 -339 148 -402 229 -22 27 -23 38 -23 177 0 97 4
150 11 155 6 3 28 33 49 66 38 59 80 167 100 263 9 41 18 55 50 77 71 49 130
212 115 317 -4 25 -17 65 -29 89 l-22 43 27 107 c53 209 62 451 24 597 -19 75
-74 188 -115 237 -44 53 -134 109 -220 138 -55 19 -83 35 -108 62 -162 178
-655 166 -937 -23 -273 -183 -362 -520 -264 -1004 l21 -104 -20 -29 c-36 -49
-46 -114 -33 -195 18 -112 72 -209 133 -243 11 -6 25 -40 38 -89 25 -98 86
-228 131 -280 l34 -38 -1 -137 c-2 -153 -8 -174 -71 -231 -58 -53 -130 -90
-323 -169 -337 -137 -457 -206 -586 -335 -64 -64 -90 -100 -127 -172 -25 -50
-51 -117 -58 -147 -15 -67 -24 -69 -94 -22 -59 39 -101 95 -121 162 -22 73
-21 3296 1 3371 28 94 93 162 190 195 47 16 154 17 1710 15 l1660 -2 57 -28z
m-1628 -577 c85 -14 146 -47 179 -97 22 -34 34 -43 57 -43 61 0 157 -39 202
-83 139 -135 155 -440 41 -811 -23 -77 -25 -89 -11 -97 54 -30 63 -46 62 -106
-1 -38 -8 -73 -23 -101 -20 -40 -24 -42 -65 -42 l-44 0 -7 -74 c-13 -139 -87
-306 -161 -363 l-34 -25 6 -207 c6 -202 6 -207 35 -268 60 -125 173 -202 486
-329 344 -141 479 -223 568 -344 39 -53 84 -151 85 -182 0 -17 -77 -18 -1481
-18 l-1481 0 6 33 c10 53 62 149 111 204 49 55 169 140 271 191 34 17 135 61
225 98 207 84 318 139 395 198 72 53 105 95 141 172 24 53 26 68 31 260 l5
203 -36 21 c-68 40 -147 204 -169 351 l-13 84 -50 5 c-47 5 -51 7 -62 41 -6
20 -15 64 -19 97 l-6 60 42 28 c32 22 40 32 36 48 -137 506 -84 852 151 1002
126 81 356 122 527 94z"/>
</g>
</svg>
